<svg data-v-423bf9ae="" xmlns="http://www.w3.org/2000/svg" viewBox="0 0 321 98" class="iconLeft"><!----><!----><!----><g data-v-423bf9ae="" id="4dcae904-5cc4-464f-a61e-792262698b8f" fill="white" transform="matrix(6.072874423584482,0,0,6.072874423584482,123.76049674607172,-3.4852472024763586)"><path d="M12.71 3.78L10.40 3.78L9.28 10.35L7.42 3.78L5.36 3.78L3.50 10.35L2.38 3.78L0.07 3.78L1.92 13.30L4.41 13.30L6.40 6.62L8.37 13.30L10.86 13.30ZM17.32 11.82C16.28 11.82 15.39 11.30 15.33 10.16L13.20 10.16C13.22 12.49 15.13 13.52 17.23 13.52C19.18 13.52 21.18 12.70 21.18 10.46C21.18 6.83 15.68 8.05 15.68 6.36C15.68 5.64 16.51 5.36 17.09 5.36C18.14 5.36 18.72 5.68 18.83 6.68L20.86 6.68C20.79 4.51 19.03 3.64 17.07 3.64C15.33 3.64 13.51 4.56 13.51 6.52C13.51 10.04 19.01 8.85 19.01 10.70C19.01 11.55 17.98 11.82 17.32 11.82ZM29.79 8.53C29.79 10.00 28.46 11.34 26.99 11.34C25.52 11.34 24.19 10.00 24.19 8.53C24.19 7.06 25.52 5.73 26.99 5.73C28.46 5.73 29.79 7.06 29.79 8.53ZM30.30 12.11C31.27 11.20 31.89 9.92 31.89 8.54C31.89 5.91 29.62 3.64 26.99 3.64C24.36 3.64 22.09 5.91 22.09 8.54C22.09 11.17 24.36 13.44 26.99 13.44C27.38 13.44 27.76 13.39 28.12 13.30L32.45 13.30L32.45 11.63L31.32 11.63Z"></path></g><!----><g data-v-423bf9ae="" id="33e96d55-1f68-4042-a542-618ac9a47a44" transform="matrix(1.0394444783528647,0,0,1.0394444783528647,0.9071993491786969,-1.6989060177273814)" stroke="none" fill="white"><g clip-rule="evenodd"><path d="M36.163 71.443c.794.611 1.527 1.283 2.48 1.736.692-1.098 1.815-2.092 2.108-3.597.112-.568-.075-1.135 0-1.738.172-1.372.658-2.773.746-4.217-.16-.006-.172-.159-.373-.124-.983 1.395-2.182 3.165-1.985 5.335-1.045.814-2.246 1.475-2.976 2.605zM41.87 74.296c.473.726 1.809.589 2.356 1.241 4.033.93 7.601 2.322 10.667 4.218.474-2.71-.146-5.391-.992-7.195-.915-.588-1.603-1.345-1.736-2.48-.164-1.382-.508-2.171-.621-3.35-.041-.438.084-.966 0-1.364-.06-.288-.345-.541-.495-.868-.601-1.309-1.196-2.368-2.357-2.854-.187.525.33.982.125 1.116-.201-.677-.715-.264-.745.248.023-.355.016-.677-.373-.62-.39.089.341.709 0 .745-.797-.442-.436-2.044-1.364-2.357-.507 1.353-.378 3.343-1.364 4.218-.167 1.871-1.118 3.749-.248 5.583-.482.096-.697.459-1.117.619-.38 1.232-1.357 1.868-1.736 3.1zM58.244 81.243c1.354.299 2.365.941 3.845 1.117.047-.487.408-.809.619-1.241 1.04-2.119 1.064-5.258 1.118-8.558-1.257-1.728-3.101-2.79-4.342-4.519-.343-.478-.416-1.042-1.117-1.042h-.248c.106 1 .71 2.938.868 4.764.278.42.817-.514.868-.284-1.054 2.748-1.806 5.765-1.611 9.763z"></path><path d="M49.974 2C22.374 2 0 24.374 0 51.974c0 13.99 5.756 26.632 15.021 35.703-.224-.601-.122-1.231.178-1.844 2.188-1.072 3.373-3.233 3.226-6.327-.034-.702-.479-1.768-.249-2.729.978-.79 1.816-.451 2.729-.621 1.645-.305 2.944-1.497 3.969-2.231.417-.3.907-.447 1.365-.745 2.095-1.361 3.222-2.899 6.327-2.232.214-.613.565-1.089 1.24-1.24.924-1.14 1.693-2.833 2.605-4.218.173-.264.487-.346.62-.62.161-.331.111-.84.249-1.241.169-.492.528-.858.62-1.24.208-.859-.067-1.379-.248-1.86-.54-1.435-.71-2.981-.745-4.59-.469-.179-.238.341-.62.248-.623-1.628-.442-2.841-.744-4.838-.364-.001-.42.574-.744.248-.189-.847.702-1.147.372-1.736-.37-.356-.368.361-.868.248.145-1.013.766-1.55.744-2.73-.18-.067-.641.146-.62-.124.387-.854.843-1.637.992-2.729-.39-.141-.301.195-.496.249-.463-.998.7-1.991.372-2.853-.401-.154-.094.4-.496.248.21-1.774 1.229-2.74 2.232-3.722.259-1.147.96-1.851.993-3.225.348-.232.522-.637.62-1.117-.165-.304-.461.136-.496-.125.206-.333.67-.951 0-1.116.359-.509.796-.94.992-1.613-.002-.205-.344-.069-.373-.248 1.172-.806.737-2.802.373-4.218.181-.108.393-.187.372-.497-.268-.683-.753-1.149-1.116-1.737.226-.674.447-1.325.495-1.86.293-.002.365.214.746.124-.778-1.074.227-2.457.992-3.101 1.049.059 1.212 1.187 1.861 1.86.459.477 1.186.611 1.612 1.117.301.357.407.821.621 1.241.458.121.669.488 1.365.372.368.541 1.051.768 1.364 1.364.483 1.212 1.015 2.375 1.24 3.846 1.144.675 2.435 1.204 2.605 2.853-.615.304-1.269-.036-1.985 0 .15.402.561.742.62 1.24.101.85-.431 1.492-.249 2.233.289 1.167 1.498 1.033 1.985 2.232-.234.056-.748-.168-.62.249.582.369 1.191.71 1.736 1.116-.46-.088-.532.211-.992.124.02.559.768.391.744.993-.256.075-.469.191-.372.62.36.136.881.112 1.24.248-.115.298-.498.328-.372.868.681.395.979 1.173 1.239 1.985.803.396 1.598.801 2.234 1.364.039.168.177.236.123.497 1.241.5 1.529 1.953 2.357 2.729 1.018.952 2.617 1.594 3.721 2.233.423.244.668.534 1.118.869.64.477 1.809.211 2.479.867.535 1.109 1.608 1.501 2.233 2.358.651.891.736 1.991 1.612 2.852 1.12.163 1.729.836 2.48 1.366 0 .413.404.422.374.867 1.821 1.363 1.46 4.396 1.983 5.954.732 2.171 1.281 3.718 3.598 4.094 1.37.223 2.864-.421 3.722.495-1.489-.041-1.979.916-3.102 1.24-.391.228.417.832 0 1.03-.755-.079-1.142.909-1.112.909h-1.116c.06 0-.228.271-.373.582-.459-.2-.91-.632-1.612-.591-.072.218.15.634-.123.647-.345-.193-.69-.433-1.116-.542.018.307.022.577-.249.597-1.114-.333-1.508-1.781-2.604-1.751-.394-.971-.593-2.143-.993-3.105.114-1.027-.077-1.056-.123-1.989-.167-.245-.866.039-.869-.372.097-.511-.19-.639-.123-1.117-.625.169-.411-.5-.621-.745-.158-.174-.608-.055-.621-.373-.205-.538-.093-1.395-.62-1.612-1.002 2.14.309 3.739.994 5.582.098.267.097.943.37 1.489.028.055.313.153.369.248.177.296.744 1.085.744 1.115 0-.021-.563.634-.625.745-.408.726-.327.976-.504 1.736-.497 2.126-1.973 3.97-1.382 6.327-.65.798-1.342 1.589-1.649 2.729 1.104.674 1.886 1.601 3.155 2.109 1.199 1.737 3.247 2.771 4.239 4.713C73.788 90.803 74 93.026 75 93.44v2.11c15-8.563 25.232-24.863 25.232-43.577C100.232 24.374 77.574 2 49.974 2z"></path></g></g></svg>